<svg width="244" height="164" viewBox="0 0 194 114" fill="none" xmlns="http://www.w3.org/2000/svg">
<path d="M7.24487 95.6275H5.66931L12.0169 86.047C12.3904 85.4835 12.8977 85.0212 13.4933 84.7014C14.089 84.3817 14.7545 84.2143 15.4306 84.2144H17.0061L10.6586 93.795C10.285 94.3585 9.77775 94.8207 9.1821 95.1404C8.58645 95.4602 7.92091 95.6275 7.24487 95.6275V95.6275Z" fill="#CC00FF"/>
<path d="M13.0144 95.6275H11.4388L17.7864 86.047C18.16 85.4835 18.6672 85.0212 19.2629 84.7014C19.8585 84.3817 20.5241 84.2143 21.2001 84.2144H22.7757L16.4281 93.795C16.0545 94.3585 15.5473 94.8207 14.9516 95.1404C14.356 95.4602 13.6904 95.6275 13.0144 95.6275V95.6275Z" fill="#B721FF"/>
<path d="M1.57555 95.6275H0L6.34756 86.047C6.72113 85.4835 7.22836 85.0212 7.82401 84.7014C8.41966 84.3817 9.0852 84.2143 9.76124 84.2144H11.3368L4.98924 93.795C4.61567 94.3585 4.10844 94.8207 3.51279 95.1404C2.91714 95.4602 2.2516 95.6275 1.57555 95.6275V95.6275Z" fill="#CC00FF"/>
<path d="M44.3611 58.6848C42.2201 62.3374 40.1168 65.9132 38.0514 69.4121C35.9859 72.9111 33.9128 76.4415 31.8322 80.0034L27.0546 73.6479L29.2177 69.9751L24.44 60.1508C22.5924 63.2833 20.7902 66.3703 18.986 69.4083C16.9357 72.901 14.8626 76.4314 12.7669 79.9996L7.98926 73.6441C10.896 68.6866 13.833 63.6838 16.8003 58.6356L23.6957 46.873H32.2365L28.7888 52.7297L33.5665 62.5332L42.761 46.8711H51.2792L46.2389 55.507H42.3643L44.3611 58.6848Z" fill="#CC00FF"/>
<path d="M38.8826 73.6479C41.5866 69.0507 44.3057 64.4081 47.0399 59.7201C49.5638 55.439 52.0651 51.156 54.5965 46.873H63.1374L58.0669 55.5033H54.1904L56.1948 58.6811C54.0537 62.3337 51.9505 65.9169 49.885 69.431C47.8353 72.9016 45.761 76.4403 43.6659 79.9997L38.8826 73.6479Z" fill="#B721FF"/>
<path d="M84.8268 55.5068H73.5826L75.587 58.6846C73.4459 62.3372 71.3351 65.9205 69.2545 69.4346C67.2047 72.9279 65.1531 76.4438 63.0581 80.0032L58.2804 73.6477L68.9163 55.5106H59.4517L64.7017 46.8804H90.0767L84.8268 55.5068Z" fill="url(#paint0_linear_956_31)"/>
<path d="M113.081 55.4617L110.423 59.8562L101.206 64.8817H101.228L98.4797 66.3685L108.056 79.9581H98.952L89.6951 66.4819L81.6285 79.9581L77.3023 74.1882L76.8527 73.6026C79.2859 69.4562 81.8249 65.1291 84.4698 60.6213L89.2701 52.4408L84.6738 46.8296H118.339L113.081 55.4617ZM105.668 55.4617H92.255L94.3047 58.6168L91.6013 63.2134L105.668 55.4617Z" fill="url(#paint1_linear_956_31)"/>
<path d="M18.6422 95.6275H17.0629L23.4104 86.047C23.784 85.4835 24.2912 85.0212 24.8869 84.7014C25.4825 84.3817 26.1481 84.2143 26.8241 84.2144H28.3997L22.0521 93.795C21.6789 94.3579 21.1722 94.8198 20.5773 95.1395C19.9824 95.4593 19.3176 95.6269 18.6422 95.6275V95.6275Z" fill="#B721FF"/>
<path d="M25.052 95.6275H23.4764L29.824 86.047C30.1975 85.4835 30.7048 85.0212 31.3004 84.7014C31.8961 84.3817 32.5616 84.2143 33.2377 84.2144H34.8132L28.4657 93.795C28.0921 94.3585 27.5849 94.8207 26.9892 95.1404C26.3935 95.4602 25.728 95.6275 25.052 95.6275V95.6275Z" fill="#B721FF"/>
<path d="M31.1068 95.6275H29.5294L35.8769 86.047C36.2505 85.4835 36.7578 85.0212 37.3534 84.7014C37.9491 84.3817 38.6146 84.2143 39.2907 84.2144H40.8662L34.5187 93.795C34.1453 94.3582 33.6383 94.8202 33.043 95.14C32.4477 95.4597 31.7826 95.6272 31.1068 95.6275V95.6275Z" fill="#B828FD"/>
<path d="M42.5078 86.2042C42.834 85.7042 43.2752 85.2897 43.7943 84.9951C44.278 84.7067 44.8294 84.5515 45.3925 84.5454H55.5505L51.3944 90.8027C51.0681 91.3027 50.627 91.7173 50.1078 92.0119C49.6242 92.3003 49.0727 92.4554 48.5096 92.4615H47.8503L48.3245 95.628H44.9051L44.4423 92.4615H41.7975L40.1879 94.8684C40.0367 95.0961 39.8342 95.2852 39.5966 95.4202C39.3757 95.5535 39.1235 95.6258 38.8655 95.6298H36.2811L42.5078 86.2042ZM43.9284 89.244H48.7042C48.8023 89.2427 48.8984 89.2168 48.9838 89.1685C49.0737 89.1207 49.1504 89.0512 49.2067 88.9664L50.0134 87.7497H45.2376C45.1337 87.7499 45.0315 87.7767 44.9409 87.8277C44.8503 87.8786 44.7742 87.952 44.72 88.0406L43.9284 89.244Z" fill="#9457FF"/>
<path d="M49.8567 95.6299L56.1438 86.1835C56.4676 85.6925 56.9025 85.2848 57.4133 84.9933C57.8924 84.7076 58.4387 84.5544 58.9964 84.5493H69.1298L62.873 93.973C62.5468 94.4729 62.1056 94.8876 61.5865 95.1822C61.1028 95.4705 60.5513 95.6258 59.9882 95.6319H58.3786L61.1935 91.4018H56.0645L53.7502 94.8723C53.5991 95.1001 53.3966 95.289 53.1589 95.424C52.9338 95.5586 52.6769 95.6311 52.4146 95.6337L49.8567 95.6299ZM62.7029 88.7775C62.7793 88.7781 62.8545 88.7586 62.9209 88.7207C62.9873 88.6829 63.0424 88.6283 63.0808 88.5622L63.6343 87.7384H58.7451C58.6688 87.7377 58.5936 87.7573 58.5272 87.7951C58.4608 87.833 58.4057 87.8877 58.3673 87.9538L57.8138 88.7775H62.7029Z" fill="#9457FF"/>
<path d="M63.2695 95.6297C63.631 95.0806 63.9597 94.5824 64.2557 94.1353L65.2701 92.6088L66.4376 90.8536L67.6051 89.0985L68.6215 87.5663C68.92 87.1141 69.2538 86.6135 69.6228 86.0643C69.954 85.6066 70.3824 85.228 70.8772 84.9554C71.3376 84.6914 71.8578 84.5496 72.3885 84.5435H82.5351L81.5037 86.0889C81.1759 86.5834 80.7356 86.9932 80.219 87.2848C79.7353 87.5731 79.1839 87.7282 78.6208 87.7344H72.2997C72.1564 87.7355 72.0156 87.7733 71.891 87.844C71.7663 87.9148 71.6619 88.0163 71.5874 88.1388L68.7311 92.433H77.2682L76.2518 93.9653C75.9257 94.4653 75.4845 94.8799 74.9653 95.1745C74.4816 95.4629 73.9302 95.618 73.3671 95.6241L63.2695 95.6297Z" fill="#9457FF"/>
<path d="M83.117 86.2037C83.4434 85.7039 83.8845 85.2894 84.4035 84.9946C84.8872 84.7063 85.4387 84.5511 86.0018 84.5449H87.6227L81.3658 93.9687C81.0397 94.4687 80.5985 94.8833 80.0793 95.1778C79.5913 95.4674 79.0353 95.6226 78.4678 95.6275H76.8469L83.117 86.2037Z" fill="#9457FF"/>
<path d="M81.9401 95.6295L88.2159 86.1831C88.3787 85.9388 88.5689 85.7138 88.7827 85.5125C88.9964 85.3123 89.2329 85.1379 89.4873 84.9929C89.7338 84.8522 89.9964 84.7418 90.2694 84.6641C90.528 84.5898 90.7956 84.5517 91.0647 84.5508H101.211L94.9432 93.9746C94.6169 94.4745 94.1758 94.8891 93.6567 95.1837C93.173 95.4721 92.6215 95.6272 92.0584 95.6333H90.4489L95.6894 87.7418H90.8003C90.7239 87.7412 90.6486 87.7607 90.5823 87.7986C90.5159 87.8364 90.4608 87.8912 90.4224 87.9572L85.8393 94.8739C85.6894 95.1006 85.4889 95.2894 85.2537 95.4256C85.0352 95.5595 84.7845 95.6319 84.5283 95.6352H81.9307L81.9401 95.6295Z" fill="#7389FF"/>
<path d="M101.886 86.0658C102.217 85.6081 102.645 85.2295 103.14 84.9568C103.601 84.6929 104.121 84.5511 104.651 84.5449H114.798L113.767 86.0903C113.439 86.5848 112.999 86.9947 112.482 87.2862C111.998 87.5745 111.447 87.7297 110.884 87.736H104.563C104.445 87.7357 104.329 87.7684 104.228 87.8304C104.121 87.8953 104.019 87.9693 103.924 88.0515C103.885 88.1018 103.759 88.2907 103.546 88.6182C103.452 88.753 103.335 88.9262 103.197 89.1378C103.058 89.3494 102.886 89.6089 102.679 89.9162C102.473 90.2248 102.23 90.5856 101.95 90.9987C101.67 91.4119 101.35 91.8929 100.988 92.4421H105.358C105.618 92.4377 105.873 92.3655 106.097 92.2325C106.337 92.0989 106.543 91.9098 106.696 91.6808C106.726 91.6298 106.756 91.5825 106.79 91.5353L106.881 91.403H104.852L105.57 90.313C105.77 90.0094 105.939 89.7575 106.076 89.5572C106.226 89.323 106.43 89.1285 106.671 88.9904C106.892 88.8569 107.144 88.7845 107.402 88.7807H111.974L108.519 93.9744C108.193 94.4732 107.754 94.8876 107.238 95.1835C106.753 95.4735 106.199 95.6286 105.634 95.6331H95.5269C96.7132 93.8509 97.7699 92.2589 98.6969 90.857L101.886 86.0658Z" fill="#728BFF"/>
<path d="M147.645 48.1313L146.765 46.8768L129.25 21.8873L99.8663 0L153.052 81.753L193.704 113.842L147.645 48.1313Z" fill="url(#paint2_linear_956_31)"/>
<path d="M110.621 104.063L138.401 88.0685L146.791 75.144L138.479 62.5991L110.621 104.063Z" fill="url(#paint3_linear_956_31)"/>
<path d="M157.761 59.2251L171.647 38.5659L176.672 38.6112L183.008 12.1519L150.826 35.6942L156.46 35.8831L149.583 46.4782L157.761 59.2251Z" fill="url(#paint4_linear_956_31)"/>
<path d="M135.951 61.7286L136.448 60.988L133.036 55.7452L123.558 71.3715H116.302L124.008 58.6623L121.89 55.5072H132.881L127.267 46.877H122.185L116.935 55.5072L107.336 71.3771L105.938 73.6443L109.747 79.9998H123.668L135.951 61.7286Z" fill="#728BFF"/>
<defs>
<linearGradient id="paint0_linear_956_31" x1="55.5" y1="63" x2="83.5" y2="63" gradientUnits="userSpaceOnUse">
<stop stop-color="#B721FF"/>
<stop offset="1" stop-color="#9457FF"/>
</linearGradient>
<linearGradient id="paint1_linear_956_31" x1="83.5" y1="61.5" x2="111" y2="64.5" gradientUnits="userSpaceOnUse">
<stop stop-color="#9457FF"/>
<stop offset="0.755208" stop-color="#728AFF"/>
</linearGradient>
<linearGradient id="paint2_linear_956_31" x1="125" y1="62.5" x2="171.505" y2="62.9011" gradientUnits="userSpaceOnUse">
<stop stop-color="#728BFF"/>
<stop offset="1" stop-color="#50BFFF"/>
</linearGradient>
<linearGradient id="paint3_linear_956_31" x1="120.309" y1="85.3631" x2="138.234" y2="85.5267" gradientUnits="userSpaceOnUse">
<stop stop-color="#728BFF"/>
<stop offset="1" stop-color="#63A1FF"/>
</linearGradient>
<linearGradient id="paint4_linear_956_31" x1="158.536" y1="37.9953" x2="175.101" y2="38.1184" gradientUnits="userSpaceOnUse">
<stop stop-color="#728BFF"/>
<stop offset="1" stop-color="#50BFFF"/>
</linearGradient>
</defs>
</svg>
