<svg xmlns="http://www.w3.org/2000/svg" width="148" height="75" viewBox="0 0 148 75" fill="none">
    <path d="M72.5657 39.4784C83.7689 38.8118 92.366 29.4801 91.677 18.6124C91.6303 18.0246 91.5835 17.525 91.5084 16.9898C91.4773 16.7688 91.2207 16.6552 91.0243 16.7726L89.7405 17.5397C89.5321 17.6642 89.4145 17.8919 89.4355 18.1278C89.4537 18.3332 89.472 18.5452 89.4903 18.7573C90.0894 28.4368 82.4508 36.7832 72.4458 37.3628C68.0424 37.6236 63.9086 36.3195 60.6136 33.9721C59.8647 33.4504 59.1757 32.8708 58.5467 32.2332C63.1897 29.7409 68.5816 26.7849 74.2132 23.4521C79.3954 20.3802 84.1882 17.3662 88.352 14.671C88.5916 14.5261 88.8013 14.3812 89.0409 14.2073C90.4488 13.2799 91.7968 12.3815 93.0549 11.5701C94.7624 10.4398 103 4.5278 103 4.5278C103 4.5278 101.053 5.4262 97.009 7.45484C96.2002 7.86056 93.8338 9.07775 93.5642 9.22265C93.2946 9.36755 93.1448 9.42552 92.8752 9.54144C92.4558 9.71532 91.9166 9.80226 91.4673 9.80226C90.8083 9.80226 90.329 9.77328 89.7 9.51245C89.2506 9.33857 88.6216 8.96182 88.2621 8.61406C88.2022 8.5561 88.2022 8.5561 88.1423 8.46916C87.9326 8.23731 87.7229 7.97649 87.5132 7.71566C83.5292 2.70202 77.1488 -0.369916 70.1393 0.0358121C58.9361 0.673384 50.3689 10.0341 51.028 20.9018C51.1935 23.598 51.9182 26.1466 53.1084 28.4344C53.2746 28.7539 53.6888 28.8596 54.0042 28.6726L54.7655 28.2211C55.0559 28.0489 55.1571 27.6892 55.0084 27.3931C53.997 25.3788 53.3524 23.1291 53.2147 20.7569C52.6156 11.0774 60.2541 2.73101 70.2591 2.15139C76.7594 1.77465 82.6905 4.78862 86.1952 9.5994C86.7943 10.4109 87.3335 11.2803 87.7828 12.2076C83.2297 14.642 78.0175 17.5401 72.5657 20.7569C67.6231 23.684 63.0399 26.553 58.996 29.1323C54.9521 31.7405 43.1797 39.8551 43 40C43.1797 39.9131 45.5761 38.8118 49.4104 36.8701C50.4888 36.3195 51.687 35.7109 52.975 35.0443C53.1548 34.9574 53.7239 34.6966 54.2032 34.5227C54.6226 34.3778 54.9521 34.2908 55.1318 34.2908C55.7609 34.2329 56.3899 34.2908 57.019 34.4647C57.4084 34.5806 57.7978 34.7255 58.1573 34.9284C58.2771 34.9864 58.3969 35.0733 58.5167 35.1313C58.8762 35.3341 59.2057 35.566 59.2057 35.566C59.3255 35.6529 59.4753 35.7399 59.5951 35.8268C59.7748 35.9427 59.9845 36.0876 60.1643 36.2036C60.6435 36.4934 61.1228 36.7832 61.6021 37.044C64.8672 38.8408 68.6415 39.7102 72.5657 39.4784Z" fill="url(#paint0_linear_625_273)"/>
    <defs>
        <linearGradient id="paint0_linear_625_273" x1="106.083" y1="3.125" x2="-10.4682" y2="77.3501" gradientUnits="userSpaceOnUse">
            <stop offset="0.145833" stop-color="#48D731"/>
            <stop offset="1" stop-color="#062701"/>
        </linearGradient>
    </defs>
</svg>